REM DIRINDEX 1\2,1\3,1\4
REM DIRNAME cjc151,folder01,folder02,folder03
TITLE ""
FILE "171 171_TOEFL_3900.mp3" MP3
  TRACK 01 AUDIO
    TITLE "2:cjc151_7455"
    INDEX 01 00:00:00
  TRACK 02 AUDIO
    TITLE "0:"
    INDEX 01 00:01:46
  TRACK 03 AUDIO
    TITLE "3:cjc151_7456"
    INDEX 01 00:03:25
  TRACK 04 AUDIO
    TITLE "0:"
    INDEX 01 00:08:09
  TRACK 05 AUDIO
    TITLE "2:cjc151_7457"
    INDEX 01 00:09:63
  TRACK 06 AUDIO
    TITLE "0:"
    INDEX 01 00:10:66
  TRACK 07 AUDIO
    TITLE "3:cjc151_7458"
    INDEX 01 00:12:56
  TRACK 08 AUDIO
    TITLE "0:"
    INDEX 01 00:17:02
  TRACK 09 AUDIO
    TITLE "2:cjc151_7459"
    INDEX 01 00:18:72
  TRACK 10 AUDIO
    TITLE "0:"
    INDEX 01 00:20:10
  TRACK 11 AUDIO
    TITLE "3:cjc151_7460"
    INDEX 01 00:21:62
  TRACK 12 AUDIO
    TITLE "0:"
    INDEX 01 00:26:28
  TRACK 13 AUDIO
    TITLE "2:cjc151_7461"
    INDEX 01 00:28:13
  TRACK 14 AUDIO
    TITLE "0:"
    INDEX 01 00:29:33
  TRACK 15 AUDIO
    TITLE "3:cjc151_7462"
    INDEX 01 00:31:12
  TRACK 16 AUDIO
    TITLE "0:"
    INDEX 01 00:35:15
  TRACK 17 AUDIO
    TITLE "2:cjc151_7463"
    INDEX 01 00:36:68
  TRACK 18 AUDIO
    TITLE "0:"
    INDEX 01 00:38:69
  TRACK 19 AUDIO
    TITLE "3:cjc151_7464"
    INDEX 01 00:40:42
  TRACK 20 AUDIO
    TITLE "0:"
    INDEX 01 00:46:19
  TRACK 21 AUDIO
    TITLE "2:cjc151_7465"
    INDEX 01 00:47:74
  TRACK 22 AUDIO
    TITLE "0:"
    INDEX 01 00:49:31
  TRACK 23 AUDIO
    TITLE "3:cjc151_7466"
    INDEX 01 00:51:09
  TRACK 24 AUDIO
    TITLE "0:"
    INDEX 01 00:55:36
  TRACK 25 AUDIO
    TITLE "2:cjc151_7467"
    INDEX 01 00:57:17
  TRACK 26 AUDIO
    TITLE "0:"
    INDEX 01 00:58:30
  TRACK 27 AUDIO
    TITLE "3:cjc151_7468"
    INDEX 01 01:00:08
  TRACK 28 AUDIO
    TITLE "0:"
    INDEX 01 01:04:13
  TRACK 29 AUDIO
    TITLE "2:cjc151_7469"
    INDEX 01 01:05:68
  TRACK 30 AUDIO
    TITLE "0:"
    INDEX 01 01:07:39
  TRACK 31 AUDIO
    TITLE "3:cjc151_7470"
    INDEX 01 01:09:18
  TRACK 32 AUDIO
    TITLE "0:"
    INDEX 01 01:13:69
  TRACK 33 AUDIO
    TITLE "2:cjc151_7471"
    INDEX 01 01:15:48
  TRACK 34 AUDIO
    TITLE "0:"
    INDEX 01 01:17:18
  TRACK 35 AUDIO
    TITLE "3:cjc151_7472"
    INDEX 01 01:18:68
  TRACK 36 AUDIO
    TITLE "0:"
    INDEX 01 01:23:62
  TRACK 37 AUDIO
    TITLE "2:cjc151_7473"
    INDEX 01 01:25:41
  TRACK 38 AUDIO
    TITLE "0:"
    INDEX 01 01:26:54
  TRACK 39 AUDIO
    TITLE "3:cjc151_7474"
    INDEX 01 01:28:31
  TRACK 40 AUDIO
    TITLE "0:"
    INDEX 01 01:33:17
  TRACK 41 AUDIO
    TITLE "2:cjc151_7475"
    INDEX 01 01:34:71
  TRACK 42 AUDIO
    TITLE "0:"
    INDEX 01 01:36:37
  TRACK 43 AUDIO
    TITLE "3:cjc151_7476"
    INDEX 01 01:38:16
  TRACK 44 AUDIO
    TITLE "0:"
    INDEX 01 01:42:37
  TRACK 45 AUDIO
    TITLE "2:cjc151_7477"
    INDEX 01 01:44:17
  TRACK 46 AUDIO
    TITLE "0:"
    INDEX 01 01:45:36
  TRACK 47 AUDIO
    TITLE "3:cjc151_7478"
    INDEX 01 01:47:15
  TRACK 48 AUDIO
    TITLE "0:"
    INDEX 01 01:51:32
  TRACK 49 AUDIO
    TITLE "2:cjc151_7479"
    INDEX 01 01:53:10
  TRACK 50 AUDIO
    TITLE "0:"
    INDEX 01 01:54:37
  TRACK 51 AUDIO
    TITLE "3:cjc151_7480"
    INDEX 01 01:56:16
  TRACK 52 AUDIO
    TITLE "0:"
    INDEX 01 01:59:59
  TRACK 53 AUDIO
    TITLE "2:cjc151_7481"
    INDEX 01 02:01:39
  TRACK 54 AUDIO
    TITLE "0:"
    INDEX 01 02:02:60
  TRACK 55 AUDIO
    TITLE "3:cjc151_7482"
    INDEX 01 02:04:37
  TRACK 56 AUDIO
    TITLE "0:"
    INDEX 01 02:08:74
  TRACK 57 AUDIO
    TITLE "2:cjc151_7483"
    INDEX 01 02:10:53
  TRACK 58 AUDIO
    TITLE "0:"
    INDEX 01 02:12:03
  TRACK 59 AUDIO
    TITLE "3:cjc151_7484"
    INDEX 01 02:13:57
  TRACK 60 AUDIO
    TITLE "0:"
    INDEX 01 02:18:23
  TRACK 61 AUDIO
    TITLE "2:cjc151_7485"
    INDEX 01 02:20:03
  TRACK 62 AUDIO
    TITLE "0:"
    INDEX 01 02:21:39
  TRACK 63 AUDIO
    TITLE "3:cjc151_7486"
    INDEX 01 02:23:21
  TRACK 64 AUDIO
    TITLE "0:"
    INDEX 01 02:28:04
  TRACK 65 AUDIO
    TITLE "2:cjc151_7487"
    INDEX 01 02:29:58
  TRACK 66 AUDIO
    TITLE "0:"
    INDEX 01 02:30:68
  TRACK 67 AUDIO
    TITLE "3:cjc151_7488"
    INDEX 01 02:32:59
  TRACK 68 AUDIO
    TITLE "0:"
    INDEX 01 02:36:47
  TRACK 69 AUDIO
    TITLE "2:cjc151_7489"
    INDEX 01 02:38:36
  TRACK 70 AUDIO
    TITLE "0:"
    INDEX 01 02:39:55
  TRACK 71 AUDIO
    TITLE "3:cjc151_7490"
    INDEX 01 02:41:44
  TRACK 72 AUDIO
    TITLE "0:"
    INDEX 01 02:45:10
  TRACK 73 AUDIO
    TITLE "2:cjc151_7491"
    INDEX 01 02:46:63
  TRACK 74 AUDIO
    TITLE "0:"
    INDEX 01 02:47:66
  TRACK 75 AUDIO
    TITLE "3:cjc151_7492"
    INDEX 01 02:49:49
  TRACK 76 AUDIO
    TITLE "0:"
    INDEX 01 02:54:23
  TRACK 77 AUDIO
    TITLE "2:cjc151_7493"
    INDEX 01 02:56:06
  TRACK 78 AUDIO
    TITLE "0:"
    INDEX 01 02:57:53
  TRACK 79 AUDIO
    TITLE "3:cjc151_7494"
    INDEX 01 02:59:32
  TRACK 80 AUDIO
    TITLE "0:"
    INDEX 01 03:05:45
  TRACK 81 AUDIO
    TITLE "2:cjc151_7495"
    INDEX 01 03:07:24
  TRACK 82 AUDIO
    TITLE "0:"
    INDEX 01 03:08:57
  TRACK 83 AUDIO
    TITLE "3:cjc151_7496"
    INDEX 01 03:10:34
  TRACK 84 AUDIO
    TITLE "0:"
    INDEX 01 03:15:23
  TRACK 85 AUDIO
    TITLE "2:cjc151_7497"
    INDEX 01 03:17:05
  TRACK 86 AUDIO
    TITLE "0:"
    INDEX 01 03:19:02
  TRACK 87 AUDIO
    TITLE "3:cjc151_7498"
    INDEX 01 03:20:56
  TRACK 88 AUDIO
    TITLE "0:"
    INDEX 01 03:25:43
